<svg width="441" height="113" viewBox="0 0 441 113" fill="none" xmlns="http://www.w3.org/2000/svg">
<path d="M12.9772 23.4501L0 37.9002L0.781759 59.0745L1.56352 80.2489L20.013 92.5529L38.6189 105L65.6678 98.9911L92.873 92.839L93.6547 82.8241C94.1238 77.2444 94.7492 67.0864 95.2182 60.3621L96 48.0581L82.5537 34.3234L69.2638 20.5887L49.2508 14.7228C38.1498 11.5753 28.456 9 27.6743 9C26.7362 9 20.1694 15.5812 12.9772 23.4501ZM81.1466 39.7601L91.7785 50.4903L90.5277 69.8048L89.4332 89.1192L83.8046 90.5499C73.329 93.1252 73.4853 93.2683 73.9544 80.535C74.4235 71.5216 74.1107 69.2325 72.3909 69.6617C71.2964 69.9478 68.4821 70.6632 66.1368 71.0924C62.0717 71.9508 61.759 72.5231 61.759 79.6766C61.759 93.2683 60.6645 95.8435 54.0977 96.9881C50.9707 97.4173 47.2182 98.1326 45.8111 98.5618C43.3094 99.2772 42.9967 97.9896 43.1531 84.541C43.3094 59.5037 43.7785 58.073 56.9121 42.6215C63.1661 35.1818 68.9511 29.0298 69.5765 29.0298C70.0456 29.0298 75.3616 33.8942 81.1466 39.7601Z" fill="#FF00FF"/>
<path d="M173.188 53.3281V80.375C172.125 81.6562 170.484 83.0469 168.266 84.5469C166.047 86.0156 163.188 87.2812 159.688 88.3438C156.188 89.4062 151.953 89.9375 146.984 89.9375C142.578 89.9375 138.562 89.2188 134.938 87.7812C131.312 86.3125 128.188 84.1719 125.562 81.3594C122.969 78.5469 120.969 75.1094 119.562 71.0469C118.156 66.9531 117.453 62.2812 117.453 57.0312V52.7656C117.453 47.5156 118.125 42.8438 119.469 38.75C120.844 34.6562 122.797 31.2031 125.328 28.3906C127.859 25.5781 130.875 23.4375 134.375 21.9688C137.875 20.5 141.766 19.7656 146.047 19.7656C151.984 19.7656 156.859 20.7344 160.672 22.6719C164.484 24.5781 167.391 27.2344 169.391 30.6406C171.422 34.0156 172.672 37.8906 173.141 42.2656H159.5C159.156 39.9531 158.5 37.9375 157.531 36.2188C156.562 34.5 155.172 33.1562 153.359 32.1875C151.578 31.2187 149.266 30.7344 146.422 30.7344C144.078 30.7344 141.984 31.2187 140.141 32.1875C138.328 33.125 136.797 34.5156 135.547 36.3594C134.297 38.2031 133.344 40.4844 132.688 43.2031C132.031 45.9219 131.703 49.0781 131.703 52.6719V57.0312C131.703 60.5938 132.047 63.75 132.734 66.5C133.422 69.2188 134.438 71.5156 135.781 73.3906C137.156 75.2344 138.844 76.625 140.844 77.5625C142.844 78.5 145.172 78.9688 147.828 78.9688C150.047 78.9688 151.891 78.7812 153.359 78.4062C154.859 78.0312 156.062 77.5781 156.969 77.0469C157.906 76.4844 158.625 75.9531 159.125 75.4531V63.3594H146.281V53.3281H173.188ZM212.281 32.4219L193.719 89H178.766L204.125 20.75H213.641L212.281 32.4219ZM227.703 89L209.094 32.4219L207.594 20.75H217.203L242.703 89H227.703ZM226.859 63.5938V74.6094H190.812V63.5938H226.859ZM255.453 20.75H267.359L284.891 70.8594L302.422 20.75H314.328L289.672 89H280.109L255.453 20.75ZM249.031 20.75H260.891L263.047 69.5938V89H249.031V20.75ZM308.891 20.75H320.797V89H306.734V69.5938L308.891 20.75ZM378.922 78.0312V89H342.594V78.0312H378.922ZM347.188 20.75V89H333.125V20.75H347.188ZM374.188 48.5469V59.2344H342.594V48.5469H374.188ZM378.875 20.75V31.7656H342.594V20.75H378.875ZM422.656 71.1406C422.656 69.9219 422.469 68.8281 422.094 67.8594C421.75 66.8594 421.094 65.9531 420.125 65.1406C419.156 64.2969 417.797 63.4688 416.047 62.6562C414.297 61.8438 412.031 61 409.25 60.125C406.156 59.125 403.219 58 400.438 56.75C397.688 55.5 395.25 54.0469 393.125 52.3906C391.031 50.7031 389.375 48.75 388.156 46.5312C386.969 44.3125 386.375 41.7344 386.375 38.7969C386.375 35.9531 387 33.375 388.25 31.0625C389.5 28.7188 391.25 26.7187 393.5 25.0625C395.75 23.375 398.406 22.0781 401.469 21.1719C404.562 20.2656 407.953 19.8125 411.641 19.8125C416.672 19.8125 421.062 20.7187 424.812 22.5312C428.562 24.3438 431.469 26.8281 433.531 29.9844C435.625 33.1406 436.672 36.75 436.672 40.8125H422.703C422.703 38.8125 422.281 37.0625 421.438 35.5625C420.625 34.0312 419.375 32.8281 417.688 31.9531C416.031 31.0781 413.938 30.6406 411.406 30.6406C408.969 30.6406 406.938 31.0156 405.312 31.7656C403.688 32.4844 402.469 33.4688 401.656 34.7188C400.844 35.9375 400.438 37.3125 400.438 38.8438C400.438 40 400.719 41.0469 401.281 41.9844C401.875 42.9219 402.75 43.7969 403.906 44.6094C405.062 45.4219 406.484 46.1875 408.172 46.9062C409.859 47.625 411.812 48.3281 414.031 49.0156C417.75 50.1406 421.016 51.4062 423.828 52.8125C426.672 54.2188 429.047 55.7969 430.953 57.5469C432.859 59.2969 434.297 61.2812 435.266 63.5C436.234 65.7188 436.719 68.2344 436.719 71.0469C436.719 74.0156 436.141 76.6719 434.984 79.0156C433.828 81.3594 432.156 83.3438 429.969 84.9688C427.781 86.5938 425.172 87.8281 422.141 88.6719C419.109 89.5156 415.719 89.9375 411.969 89.9375C408.594 89.9375 405.266 89.5 401.984 88.625C398.703 87.7188 395.719 86.3594 393.031 84.5469C390.375 82.7344 388.25 80.4219 386.656 77.6094C385.062 74.7969 384.266 71.4688 384.266 67.625H398.375C398.375 69.75 398.703 71.5469 399.359 73.0156C400.016 74.4844 400.938 75.6719 402.125 76.5781C403.344 77.4844 404.781 78.1406 406.438 78.5469C408.125 78.9531 409.969 79.1562 411.969 79.1562C414.406 79.1562 416.406 78.8125 417.969 78.125C419.562 77.4375 420.734 76.4844 421.484 75.2656C422.266 74.0469 422.656 72.6719 422.656 71.1406Z" fill="#FF00FF"/>
</svg>
